<?xml version="1.0" encoding="UTF-8"?>
<svg id="_レイヤー_6のコピー" data-name="レイヤー 6のコピー" xmlns="http://www.w3.org/2000/svg" viewBox="0 0 360.06 84.53">
  <defs>
    <style>
      .cls-1 {
        fill: #fff;
      }
    </style>
  </defs>
  <polygon class="cls-1" points="103.01 15.57 114.25 0 109.09 18.49 128.27 17.57 110.59 25.07 123.26 39.49 106.38 30.34 103.01 49.24 99.64 30.34 82.76 39.49 95.44 25.07 77.76 17.57 96.94 18.49 91.77 0 103.01 15.57"/>
  <g>
    <path class="cls-1" d="M51.16,32.58c.19.88.29,1.73.33,2.57.03.84.05,1.7.05,2.57,0,2.68-.67,5.26-2.01,7.72-1.34,2.47-3.13,4.63-5.37,6.5-2.24,1.87-4.84,3.37-7.79,4.49-2.96,1.12-6.05,1.68-9.29,1.68-1.87,0-3.72-.28-5.55-.84-1.84-.56-3.45-1.4-4.85-2.53s-2.54-2.54-3.41-4.26c-.87-1.72-1.31-3.73-1.31-6.04,0-3.68,1.09-6.91,3.27-9.69,2.18-2.78,5.02-5.16,8.54-7.16,3.52-2,7.5-3.65,11.95-4.96,4.45-1.31,8.92-2.34,13.4-3.09s8.78-1.28,12.88-1.59c4.11-.31,7.62-.47,10.55-.47,2.74,0,5.52.05,8.36.14,2.83.09,5.51.2,8.03.33,2.52.12,4.82.25,6.91.37,2.08.13,3.75.22,4.99.28,1.68.06,2.88.41,3.59,1.03.71.62,1.07,1.4,1.07,2.34,0,1-.59,1.84-1.77,2.53-1.18.69-3.05,1.03-5.6,1.03-2.37,0-4.53-.06-6.49-.19s-3.75-.19-5.37-.19c-3.05,0-5.83,1.03-8.36,3.09s-4.92,4.71-7.19,7.96c-2.27,3.25-4.48,6.87-6.63,10.86-2.15,3.99-4.37,7.93-6.68,11.79-2.37,3.99-4.87,7.57-7.52,10.72-2.65,3.15-5.51,5.83-8.59,8.05-3.08,2.22-6.43,3.92-10.04,5.1-3.61,1.18-7.59,1.78-11.95,1.78-1.93,0-4.01-.2-6.25-.61-2.24-.4-4.33-1.09-6.25-2.06-1.93-.97-3.55-2.26-4.85-3.88-1.31-1.62-1.96-3.65-1.96-6.08,0-1.75.54-3.24,1.63-4.49,1.09-1.25,2.54-1.87,4.34-1.87,1.55,0,2.72.38,3.5,1.12.78.75,1.17,1.78,1.17,3.09s-.33,2.21-.98,2.9c-.65.69-1.51,1.19-2.57,1.5.25,3.12,1.35,5.45,3.31,6.97,1.96,1.53,5.03,2.29,9.2,2.29s7.62-.98,10.74-2.95c3.11-1.97,5.93-4.46,8.45-7.49,2.52-3.03,4.82-6.38,6.91-10.06,2.08-3.68,4.09-7.21,6.02-10.58,2.18-3.81,4.25-7.16,6.21-10.06s4.08-5.44,6.35-7.63c2.27-2.18,4.84-4.07,7.7-5.66,2.86-1.59,6.29-2.98,10.27-4.17v-.19c-.93-.12-2.1-.23-3.5-.33-1.4-.09-2.93-.17-4.57-.23-1.65-.06-3.35-.11-5.09-.14-1.74-.03-3.36-.05-4.85-.05-3.86,0-7.81.14-11.86.42-4.05.28-7.97.72-11.76,1.31-3.8.59-7.36,1.4-10.69,2.43-3.33,1.03-6.25,2.28-8.78,3.74-2.52,1.47-4.5,3.18-5.93,5.15-1.43,1.97-2.15,4.23-2.15,6.79,0,1.68.47,3.18,1.4,4.49.93,1.31,2.12,2.39,3.55,3.23,1.43.84,3.02,1.48,4.76,1.92,1.74.44,3.45.66,5.13.66,2.49,0,5.06-.36,7.7-1.08,2.64-.72,5.07-1.78,7.28-3.18,2.21-1.4,4.01-3.2,5.41-5.38,1.4-2.18,2.1-4.71,2.1-7.58,0-1.37-.09-2.75-.28-4.12l1.03-.09Z"/>
    <path class="cls-1" d="M106.03,57.19c-.18.18-.46.48-.86.9-.4.42-.9.84-1.49,1.26-.6.42-1.27.8-2.02,1.13-.75.33-1.57.5-2.45.5-1.15,0-2.18-.28-3.08-.83-.91-.55-1.74-1.3-2.49-2.23h-.13c0,2.3-.54,4.5-1.62,6.58-1.08,2.08-2.52,3.91-4.31,5.48-1.79,1.57-3.84,2.82-6.13,3.72-2.3.91-4.69,1.36-7.16,1.36-1.46,0-2.87-.16-4.24-.47-1.37-.31-2.59-.82-3.65-1.53s-1.91-1.64-2.55-2.79c-.64-1.15-.96-2.57-.96-4.25,0-2.53.6-4.81,1.79-6.85,1.19-2.04,2.73-3.78,4.61-5.22,1.88-1.44,4-2.54,6.37-3.29,2.36-.75,4.7-1.13,7-1.13,1.9,0,3.47.27,4.71.8,1.24.53,2.29,1.19,3.15,1.96.86.78,1.59,1.63,2.19,2.56s1.19,1.79,1.79,2.56c.6.78,1.26,1.43,1.99,1.96.73.53,1.65.8,2.75.8,1.02,0,2.07-.3,3.15-.9,1.08-.6,2.13-1.47,3.15-2.63l.53.53ZM83.69,50.34c-1.06,0-2.13.37-3.22,1.1-1.08.73-2.13,1.69-3.15,2.86-1.02,1.17-1.97,2.5-2.85,3.99-.88,1.49-1.66,2.98-2.32,4.49-.66,1.51-1.18,2.97-1.56,4.39-.38,1.42-.56,2.66-.56,3.72s.23,1.84.7,2.46c.46.62,1.12.93,1.96.93,1.06,0,2.13-.37,3.22-1.1,1.08-.73,2.13-1.68,3.15-2.86,1.02-1.17,1.97-2.5,2.85-3.99.88-1.48,1.66-2.98,2.32-4.49.66-1.51,1.18-2.98,1.56-4.42.38-1.44.56-2.67.56-3.69s-.23-1.84-.7-2.46c-.46-.62-1.12-.93-1.96-.93Z"/>
    <path class="cls-1" d="M113.79,74.27c.27-.44.74-1.21,1.43-2.29.68-1.08,1.46-2.33,2.32-3.72.86-1.4,1.77-2.87,2.72-4.42.95-1.55,1.81-3.03,2.59-4.42.77-1.4,1.41-2.63,1.92-3.69.51-1.06.76-1.82.76-2.26,0-1.11-.57-1.66-1.72-1.66-.71,0-1.6.4-2.69,1.2-1.08.8-2.27,1.85-3.55,3.16-1.28,1.31-2.61,2.77-3.98,4.39-1.37,1.62-2.66,3.25-3.88,4.89-1.22,1.64-2.31,3.2-3.28,4.69-.97,1.49-1.72,2.74-2.25,3.76l-8.95.4c2.12-3.94,4.44-7.92,6.96-11.93,2.52-4.01,4.8-7.92,6.83-11.73l9.55-.27-8.82,12.96.13.13c.93-1.15,2.01-2.53,3.25-4.12,1.24-1.59,2.62-3.11,4.14-4.55,1.52-1.44,3.18-2.67,4.97-3.69,1.79-1.02,3.66-1.53,5.6-1.53,1.55,0,2.81.41,3.78,1.23.97.82,1.46,2.03,1.46,3.62,0,.97-.11,1.81-.33,2.49-.22.69-.53,1.41-.93,2.16l.13.13c.8-.89,1.69-1.88,2.69-2.99.99-1.11,2.07-2.16,3.22-3.16,1.15-1,2.36-1.83,3.65-2.49,1.28-.67,2.61-1,3.98-1,1.55,0,2.85.43,3.91,1.3s1.59,2.12,1.59,3.76c0,1.55-.46,3.14-1.39,4.75-.93,1.62-1.95,3.18-3.05,4.69-1.11,1.51-2.12,2.92-3.05,4.22-.93,1.31-1.39,2.43-1.39,3.36,0,.49.14.9.43,1.23.29.33.72.5,1.29.5.88,0,1.85-.32,2.88-.96,1.04-.64,2.1-1.46,3.18-2.46,1.08-1,2.17-2.13,3.25-3.39,1.08-1.26,2.11-2.5,3.08-3.72.97-1.22,1.86-2.35,2.65-3.39s1.44-1.87,1.92-2.49l.46.4c-1.15,1.51-2.52,3.32-4.11,5.45-1.59,2.13-3.29,4.15-5.11,6.05-1.68,1.82-3.43,3.31-5.24,4.49-1.81,1.17-3.76,1.76-5.84,1.76-.97,0-1.82-.17-2.55-.5-.73-.33-1.32-.77-1.76-1.33-.44-.55-.77-1.16-.99-1.83-.22-.67-.33-1.33-.33-2,0-1.6.44-3.18,1.33-4.75.88-1.57,1.86-3.06,2.92-4.46,1.06-1.4,2.03-2.67,2.92-3.82.88-1.15,1.33-2.1,1.33-2.86,0-.58-.17-1.01-.5-1.3-.33-.29-.72-.43-1.16-.43-.71,0-1.59.41-2.65,1.23-1.06.82-2.22,1.87-3.48,3.16-1.26,1.29-2.55,2.75-3.88,4.39-1.33,1.64-2.58,3.28-3.75,4.92-1.17,1.64-2.23,3.19-3.18,4.65-.95,1.46-1.69,2.7-2.22,3.72l-9.22.4Z"/>
    <path class="cls-1" d="M191.17,57.19c-1.02,1.46-2.16,2.94-3.42,4.42-1.26,1.49-2.69,3-4.28,4.55-3.05,2.93-6.01,5.14-8.89,6.65-2.87,1.51-6.08,2.26-9.61,2.26-3.05,0-5.37-.71-6.96-2.13s-2.39-3.48-2.39-6.18c0-2.35.66-4.56,1.99-6.65,1.33-2.08,2.99-3.9,5.01-5.45,2.01-1.55,4.2-2.79,6.56-3.72,2.36-.93,4.61-1.4,6.73-1.4s3.87.34,5.24,1.03c1.37.69,2.06,1.81,2.06,3.36s-.75,2.9-2.25,4.06c-1.5,1.15-3.28,2.14-5.34,2.96-2.06.82-4.12,1.49-6.2,2-2.08.51-3.71.9-4.91,1.16-.09.44-.16.89-.2,1.33-.04.44-.07.89-.07,1.33,0,.8.09,1.58.27,2.36.18.78.47,1.45.9,2.03.42.58.97,1.04,1.66,1.4.68.36,1.54.53,2.55.53,2.08,0,4.31-.76,6.7-2.29s4.8-3.45,7.23-5.75c1.55-1.51,2.91-2.97,4.08-4.39,1.17-1.42,2.15-2.7,2.95-3.86l.6.4ZM176.58,52.2c0-1.24-.62-1.86-1.86-1.86-.97,0-2.02.5-3.15,1.5-1.13,1-2.17,2.19-3.12,3.59-.95,1.4-1.78,2.83-2.49,4.29-.71,1.46-1.15,2.68-1.33,3.66,1.86-.4,3.52-1.01,5.01-1.83,1.48-.82,2.74-1.74,3.78-2.76s1.82-2.1,2.36-3.26c.53-1.15.79-2.26.79-3.32ZM180.52,36.97c0,.93-.5,1.91-1.49,2.93s-2.12,1.96-3.38,2.83-2.47,1.57-3.65,2.13c-1.17.55-1.94.79-2.29.83-.9.1-1.24-.32-1.24-.85,0-.27.21-.59.65-.88.44-.29.81-.61,1.7-1.32,1.25-.99,2.25-1.81,2.78-2.76s.92-1.82,1.16-2.59c.24-.77.65-1.42.99-1.85.86-1.09,1.4-.92,2.2-.92.71,0,1.34.34,1.83.74.49.4.73.98.73,1.73Z"/>
    <path class="cls-1" d="M220.74,57.05c-1.72,2.22-3.48,4.38-5.27,6.48-1.79,2.11-3.86,4.11-6.2,6.02-2.12,1.73-4.34,3.08-6.66,4.06-2.32.97-4.96,1.46-7.92,1.46-1.19,0-2.37-.16-3.51-.47-1.15-.31-2.17-.77-3.05-1.4-.88-.62-1.59-1.42-2.12-2.39-.53-.97-.8-2.13-.8-3.46,0-2.62.66-5.01,1.99-7.18,1.33-2.17,3.02-4.04,5.07-5.62,2.06-1.57,4.31-2.8,6.76-3.69,2.45-.89,4.81-1.33,7.06-1.33,2.12,0,3.85.37,5.17,1.1s1.99,1.83,1.99,3.29c0,.93-.2,1.74-.6,2.43-.4.69-.94,1.26-1.62,1.73-.69.47-1.47.81-2.35,1.03-.89.22-1.81.33-2.79.33h-.53c.09-.49.14-1.03.17-1.63.02-.6.03-1.34.03-2.23,0-1.55-.13-2.73-.4-3.52-.27-.8-.82-1.2-1.66-1.2-.93,0-1.95.53-3.05,1.6-1.11,1.06-2.16,2.38-3.15,3.96-1,1.57-1.82,3.28-2.49,5.12-.66,1.84-1,3.54-1,5.09,0,1.91.47,3.46,1.43,4.65.95,1.2,2.38,1.8,4.28,1.8s4.07-.69,6.23-2.06c2.17-1.37,4.4-3.19,6.7-5.45,1.5-1.46,2.95-3.05,4.34-4.75,1.39-1.71,2.53-3.11,3.42-4.22l.53.47Z"/>
    <path class="cls-1" d="M245.81,27.33c-4.42,7.36-8.2,13.58-11.34,18.68s-5.71,9.36-7.72,12.8c-2.01,3.44-3.49,6.16-4.44,8.18-.95,2.02-1.43,3.62-1.43,4.82,0,.49.14.86.43,1.13.29.27.61.4.96.4,1.02,0,2.3-.57,3.85-1.7,1.55-1.13,3.15-2.54,4.81-4.22,1.66-1.68,3.26-3.49,4.81-5.42,1.55-1.93,2.83-3.69,3.85-5.29l.53.27c-.31.44-.82,1.2-1.53,2.26-.71,1.06-1.59,2.27-2.65,3.62-1.06,1.35-2.24,2.74-3.55,4.15-1.3,1.42-2.67,2.73-4.11,3.92-1.44,1.2-2.92,2.18-4.44,2.96-1.52.77-3.04,1.16-4.54,1.16-1.86,0-3.25-.47-4.18-1.4-.93-.93-1.39-2.1-1.39-3.52,0-.97.16-2,.46-3.09s.81-2.37,1.49-3.86c.68-1.48,1.59-3.23,2.72-5.25,1.13-2.02,2.52-4.42,4.18-7.21,1.66-2.79,3.6-6.05,5.83-9.77,2.23-3.72,4.79-8.04,7.66-12.96l9.75-.67Z"/>
    <path class="cls-1" d="M271.27,50.34c-.49.71-1.12,1.62-1.89,2.73-.77,1.11-1.6,2.3-2.49,3.59-.88,1.29-1.77,2.63-2.65,4.02-.88,1.4-1.69,2.76-2.42,4.09-.73,1.33-1.33,2.57-1.79,3.72-.46,1.15-.7,2.13-.7,2.93,0,1.29.51,1.93,1.52,1.93.93,0,2.02-.44,3.28-1.33,1.26-.89,2.64-2.07,4.14-3.56,1.5-1.48,3.07-3.22,4.71-5.22,1.63-1.99,3.29-4.1,4.97-6.32l.4.27c-1.77,2.26-3.49,4.47-5.17,6.62-1.68,2.15-3.35,4.05-5.01,5.72-1.66,1.66-3.32,3-4.97,4.02-1.66,1.02-3.35,1.53-5.07,1.53-1.5,0-2.65-.24-3.45-.73-.8-.49-1.38-1.1-1.76-1.83-.38-.73-.6-1.5-.66-2.29s-.1-1.51-.1-2.13l-.2-.13c-.71.84-1.47,1.68-2.29,2.53-.82.84-1.71,1.61-2.69,2.29-.97.69-1.99,1.24-3.05,1.66-1.06.42-2.19.63-3.38.63-2.12,0-3.72-.63-4.81-1.89-1.08-1.26-1.62-3.29-1.62-6.08,0-1.95.49-3.96,1.46-6.02.97-2.06,2.35-3.94,4.14-5.65,1.79-1.71,3.92-3.11,6.4-4.22,2.47-1.11,5.19-1.66,8.16-1.66,1.72,0,3.04.43,3.95,1.3.91.86,1.49,1.94,1.76,3.22h.13l1.72-3.46,9.42-.27ZM244.95,72.14c.93,0,2.12-.6,3.58-1.79,1.46-1.2,2.89-2.73,4.31-4.59s2.63-3.89,3.65-6.08c1.02-2.19,1.53-4.29,1.53-6.28,0-1.02-.3-1.78-.9-2.29-.6-.51-1.27-.76-2.02-.76-.93,0-1.87.31-2.82.93-.95.62-1.88,1.45-2.79,2.49-.91,1.04-1.77,2.22-2.59,3.52-.82,1.31-1.54,2.64-2.15,3.99-.62,1.35-1.11,2.69-1.46,4.02-.35,1.33-.53,2.5-.53,3.52,0,.75.14,1.5.43,2.23.29.73.87,1.1,1.76,1.1Z"/>
    <path class="cls-1" d="M290.43,50.34c-1.42,2.26-2.81,4.45-4.18,6.58-1.37,2.13-2.59,4.11-3.65,5.95-1.06,1.84-1.91,3.47-2.55,4.89-.64,1.42-.96,2.55-.96,3.39,0,.62.11,1.14.33,1.56.22.42.62.63,1.19.63.88,0,1.85-.32,2.88-.96,1.04-.64,2.11-1.46,3.22-2.46,1.1-1,2.21-2.13,3.32-3.39,1.1-1.26,2.14-2.5,3.12-3.72.97-1.22,1.85-2.37,2.62-3.46.77-1.08,1.4-1.96,1.89-2.63l.53.2c-1.06,1.51-2.39,3.33-3.98,5.48-1.59,2.15-3.38,4.24-5.37,6.28-2.03,2.08-3.91,3.67-5.64,4.75-1.72,1.09-3.65,1.63-5.77,1.63-1.81,0-3.18-.52-4.11-1.56-.93-1.04-1.39-2.49-1.39-4.35,0-1.99.85-4.49,2.55-7.48,1.7-2.99,3.86-6.68,6.46-11.07l9.48-.27ZM287.05,39.97c0-1.29.45-2.38,1.36-3.29.91-.91,2-1.36,3.28-1.36s2.38.46,3.28,1.36c.91.91,1.36,2.01,1.36,3.29s-.45,2.38-1.36,3.29-2,1.36-3.28,1.36-2.38-.45-3.28-1.36-1.36-2-1.36-3.29Z"/>
    <path class="cls-1" d="M286.99,74.27l13.39-23.67,9.55-.27-10.15,15.03.13.13c2.43-3.5,4.7-6.32,6.8-8.44,2.1-2.13,3.95-3.52,5.54-4.19.62-.75,1.17-1.35,1.66-1.79.49-.44,1.12-.8,1.89-1.06.77-.27,1.81-.45,3.12-.56,1.3-.11,3.08-.21,5.34-.3-.53.53-1.06,1.13-1.59,1.8-.53.66-1.02,1.37-1.46,2.13-.44.75-.81,1.53-1.09,2.33-.29.8-.43,1.57-.43,2.33,0,.93.23,1.79.7,2.59s1.2,1.2,2.22,1.2c.66,0,1.33-.14,1.99-.43.66-.29,1.3-.66,1.92-1.13.62-.46,1.2-.99,1.76-1.56.55-.58,1.05-1.13,1.49-1.66l.46.4c-.31.36-.75.88-1.33,1.56-.58.69-1.34,1.36-2.29,2.03-.95.67-2.12,1.25-3.51,1.76-1.39.51-3.06.76-5.01.76-1.06,0-2.03-.17-2.92-.5-.88-.33-1.62-.76-2.22-1.3s-1.06-1.15-1.39-1.86c-.33-.71-.5-1.46-.5-2.26,0-1.33.18-2.37.53-3.12v-.13c-1.33.71-2.77,1.88-4.34,3.52-1.57,1.64-3.09,3.45-4.58,5.42-1.48,1.97-2.83,3.95-4.04,5.92-1.22,1.97-2.13,3.62-2.75,4.95l-8.88.4Z"/>
    <path class="cls-1" d="M360.06,57.19c-1.02,1.46-2.16,2.94-3.42,4.42-1.26,1.49-2.69,3-4.28,4.55-3.05,2.93-6.01,5.14-8.89,6.65-2.87,1.51-6.08,2.26-9.61,2.26-3.05,0-5.37-.71-6.96-2.13-1.59-1.42-2.39-3.48-2.39-6.18,0-2.35.66-4.56,1.99-6.65,1.33-2.08,2.99-3.9,5.01-5.45,2.01-1.55,4.2-2.79,6.56-3.72,2.36-.93,4.61-1.4,6.73-1.4s3.87.34,5.24,1.03c1.37.69,2.06,1.81,2.06,3.36s-.75,2.9-2.25,4.06c-1.5,1.15-3.28,2.14-5.34,2.96-2.06.82-4.12,1.49-6.2,2-2.08.51-3.71.9-4.91,1.16-.09.44-.16.89-.2,1.33-.04.44-.07.89-.07,1.33,0,.8.09,1.58.27,2.36.18.78.47,1.45.89,2.03.42.58.97,1.04,1.66,1.4.68.36,1.54.53,2.55.53,2.08,0,4.31-.76,6.7-2.29,2.39-1.53,4.8-3.45,7.23-5.75,1.55-1.51,2.91-2.97,4.08-4.39,1.17-1.42,2.15-2.7,2.95-3.86l.6.4ZM345.47,52.2c0-1.24-.62-1.86-1.86-1.86-.97,0-2.02.5-3.15,1.5-1.13,1-2.17,2.19-3.12,3.59-.95,1.4-1.78,2.83-2.49,4.29s-1.15,2.68-1.33,3.66c1.86-.4,3.53-1.01,5.01-1.83,1.48-.82,2.74-1.74,3.78-2.76,1.04-1.02,1.82-2.1,2.35-3.26.53-1.15.79-2.26.79-3.32Z"/>
  </g>
</svg>